
<global>
amp_veltrack=0
ampeg_release=0.45
</global>

<group>
group_label=Group_0-42
lpc_hicc1=42
lpc_locc1=0

<region>
hikey=B3
hivel=127
lokey=A#3
loop_end=277648
loop_mode=loop_continuous
loop_start=79935
loop_xfade=23957
lovel=1
lpc=3cMGQtMZdcJufi5CYpMOwj913EGbjrrBRmm7QR99Z8Hi4B9BMORgwFdBHz9bcaY/ZRpQv5YZgr/gvME/2eqUv4IaKD+W2V0/b7vAvqRKFsDP/uM+5S/dP7Aip8DSloJA
lpc_rms=-39.29
offset=4328
pitch_keycenter=A#3
sample=Soprano_Accent_PP_A#2.opus
tune=+8
</region>

<region>
hikey=B4
hivel=127
lokey=A#4
loop_end=281933
loop_mode=loop_continuous
loop_start=81168
loop_xfade=24327
lovel=1
lpc=cSnbQTTYgMIuEYJC3v9Gwh0sDkI+oLHBLv+wQaI83sE14MBBp5E2wUaRMUCRQ9w/UbHywMHk/0BJYom/FUodv40EYsA72lpAUdWYPhU6rT6wPaS/HfjdPw0jysCDEadA
lpc_rms=-37.51
offset=10164
pitch_keycenter=A#4
sample=Soprano_Accent_PP_A#3.opus
</region>

<region>
hikey=B5
hivel=127
lokey=A#5
loop_end=272966
loop_mode=loop_continuous
loop_start=78587
loop_xfade=23553
lovel=1
lpc=msIDQ8pYgcOhlHFDzU4ow66p2kJCS4DCWKzQQowz/cIBaZ1C6NUQwpjZmUETy5LAINXiQStMncGR49DAX/c6QQojZsH/9mBBB4hnP6+hBEL9Bf3BRutTweEZtEFF1TrB
lpc_rms=-23.58
offset=1339
pitch_keycenter=A#5
sample=Soprano_Accent_PP_A#4.opus
tune=-10
</region>

<region>
hikey=C#4
hivel=127
lokey=C4
loop_end=277819
loop_mode=loop_continuous
loop_start=79984
loop_xfade=23972
lovel=1
lpc=jSBTQonr1cL8trlC3omcwjvxZUJb7i7CO2UlQl9808FSWIVBjkf+wJiHzkC7+ei/6MCwP353VcDgYeQ/KlCFwKpNXEAIiIO922Y4QD6+usCZ/4ZABP6gwPOeO8ARMrpA
lpc_rms=-34.14
offset=3060
sample=Soprano_Accent_PP_C3.opus
tune=+5
</region>

<region>
hikey=C#5
hivel=127
lokey=C5
loop_end=279150
loop_mode=loop_continuous
loop_start=80367
loop_xfade=24087
lovel=1
lpc=EjIPQ0IkjcMf81lDM6zBwl0Hy0FCuZrBLlYqQvC1GcJ/6bhA2boGQYDalsAv69pBnVBPwfSutEBjHQJBQnWTwYFXH0ADBNLAM9gSwYRqGEEM1zdBMbTAQL2+BsKyrOhB
lpc_rms=-31.15
offset=7438
pitch_keycenter=C5
sample=Soprano_Accent_PP_C4.opus
tune=-6
</region>

<region>
hikey=C#6
hivel=127
lokey=C6
loop_end=274178
loop_mode=loop_continuous
loop_start=78936
loop_xfade=23658
lovel=1
lpc=KGSpQtrWAsMHuZdCiaX0waxc6EF7MQ3C7SA8QuahEMKSBHZB6OwUwNGw00Ag6h3BPDIoQa1aqL/i2tTA9XV8QeyGR8FDoy9BN2xMwAr5WEBTUQ7ByLwiwKZ9PsFwSGlB
lpc_rms=-32.42
offset=8645
pitch_keycenter=C6
sample=Soprano_Accent_PP_C5.opus
tune=-12
</region>

<region>
hikey=D#4
hivel=127
lokey=D4
loop_end=277072
loop_mode=loop_continuous
loop_start=79769
loop_xfade=23907
lovel=1
lpc=5NWKQgCHFsMY8AdDmuXOwi8jkkJoa1PCa3JpQl0gNsK0+aZBXambv1hrjcBfjjtAMfq8wJGlwUC4Wdy/JTKbPR5UO79kCehARz8hwRjvqkAeHdW/17SswImaRz6sl6tA
lpc_rms=-32.63
offset=4647
pitch_keycenter=D4
sample=Soprano_Accent_PP_D3.opus
tune=+1
</region>

<region>
hikey=D#5
hivel=127
lokey=D5
loop_end=283943
loop_mode=loop_continuous
loop_start=81747
loop_xfade=24500
lovel=1
lpc=nbcOQ7/zisNBXS5Dyltfwg4mIUJAXiHChCWcQmcJfcIspOZAoJyVPoIRiMCh0eBBzgYywXNNCsAqohnBDG04wUuYEkEGxctB9a6UQO+v/MBBzw/BeSqkv6WW1MHMVwhC
lpc_rms=-32.08
offset=11153
pitch_keycenter=D5
sample=Soprano_Accent_PP_D4.opus
tune=+4
</region>

<region>
hikey=D#6
hivel=127
lokey=D6
loop_end=280170
loop_mode=loop_continuous
loop_start=80661
loop_xfade=24175
lovel=1
lpc=Ni+GQinZzMID43lCAkX8we4k0kGw+wfCgL4eQhOJysE0NmVBa5jZwI04y0DcH4zAN5oPQfNYtMDQKNY/2O7YQOMY1sCxzQ5BzkwzwFXHQsFQZg3BuLQXQWOETkE0RArA
lpc_rms=-33.02
offset=14831
pitch_keycenter=D6
sample=Soprano_Accent_PP_D5.opus
tune=-15
</region>

<region>
hikey=F4
hivel=127
lokey=E4
loop_end=280366
loop_mode=loop_continuous
loop_start=80717
loop_xfade=24192
lovel=1
lpc=6mkJQ7QuicMYMhVD98hxwoI9lULIOWjCqyWuQirwWsIKfwxBQBZjwN6uiMHc1JlBlvpdwXhypD8hSDFBInE0wZgeMr8QzlRAqGYlQaPEM8E+BRBBjTPEwCKkUT4OOp4/
lpc_rms=-29.97
offset=9492
pitch_keycenter=E4
sample=Soprano_Accent_PP_E3.opus
tune=-4
</region>

<region>
hikey=F5
hivel=127
lokey=E5
loop_end=265686
loop_mode=loop_continuous
loop_start=76491
loop_xfade=22925
lovel=1
lpc=qHpQQ6n7zcPC6pRDlRsIw3MbsEIoMCPCu4KGQt5KasLDl7bA9q56QdNgg8DTMINBHQaxwF8GrD8vBBRA1gwAwcclKUGf/LNAiB1MQOxcLEDcH3bBvcPqQBlAWMFNgNxB
lpc_rms=-28.24
offset=1800
pitch_keycenter=E5
sample=Soprano_Accent_PP_E4.opus
tune=+2
</region>

<region>
hikey=F6
hivel=127
lokey=E6
loop_end=279748
loop_mode=loop_continuous
loop_start=80539
loop_xfade=24138
lovel=1
lpc=0ddOQmThtMJRS5BCpfUTwirkBELSxRLCGHcfQpTDAcKjx79B6IgRwSxap0BYMFPAeWgRQWoy7MCerBxB7jwPwBDtgcB3I+FAfWfuwVnNEUIHQjbBDBcvPhL0i8C8gZJA
lpc_rms=-32.95
offset=11278
pitch_keycenter=E6
sample=Soprano_Accent_PP_E5.opus
tune=-3
</region>

<region>
hikey=G4
hivel=127
lokey=F#4
loop_end=272807
loop_mode=loop_continuous
loop_start=78541
loop_xfade=23539
lovel=1
lpc=fJYNQyOAqMPlaJdDlFoHw1Iz0UEYiAvC377HQqOXvsL9WjNCcaTLP1ICy8HSZI1BxPKjwbXo4EH9LWy/ZW1xwMeklcEz5gdB8wL1QNdIscGCaqBBH0D0wFOEVkEXbdTA
lpc_rms=-28.38
offset=1620
pitch_keycenter=F#4
sample=Soprano_Accent_PP_F#3.opus
tune=-6
</region>

<region>
hikey=G5
hivel=127
lokey=F#5
loop_end=279429
loop_mode=loop_continuous
loop_start=80447
loop_xfade=24111
lovel=1
lpc=HMkpQiosu8KBtrhCfStswqtVEkKqZKbB6wSwQSSJl8HJdPY/+XCjQLve1UAp15XA1+6EwEm50kC3biTAt/eTvh+6tkCp5Ys/rqfewIK4ikBjVkvAGx45Qes3R8E9ZQFB
lpc_rms=-36.72
offset=9192
pitch_keycenter=F#5
sample=Soprano_Accent_PP_F#4.opus
tune=+3
</region>

<region>
hikey=A3
hivel=127
lokey=G#3
loop_end=277477
loop_mode=loop_continuous
loop_start=79886
loop_xfade=23942
lovel=1
lpc=CS+YQrkLG8O5BtJCiyFUwlvhL0I4MQ/C0y7rQfb4nsEnYSFBeIJbQIrtB8EwFV5BK6BHwatTKUFMKFHBnXvMQPgGtMCBFRtB6qaGwJX8CD+Sd5C/u13yQFk+icEjSBlB
lpc_rms=-30.76
offset=7408
pitch_keycenter=G#3
sample=Soprano_Accent_PP_G#2.opus
</region>

<region>
hikey=A4
hivel=127
lokey=G#4
loop_end=279138
loop_mode=loop_continuous
loop_start=80364
loop_xfade=24086
lovel=1
lpc=iTKcQrnjN8MdcyxDVv3awmeGZ0IA9+XBpWQrQpMWLsLgWrlBkj0FwNp0d8Gj1ltBgj0twY0kLEFuJTo+RhLCvvlrm8CcwWe/cM8PQQNHb8GLA25BZBXZwFOCgsCcqbdA
lpc_rms=-31.87
offset=5637
pitch_keycenter=G#4
sample=Soprano_Accent_PP_G#3.opus
tune=-4
</region>

<region>
hikey=A5
hivel=127
lokey=G#5
loop_end=273761
loop_mode=loop_continuous
loop_start=78816
loop_xfade=23622
lovel=1
lpc=+hC+QrlwOsPpHBND5e6XwpW7e0LjPDHCcv4EQlhICcJ44cdB7Nc4wR4oW0FEohrA3+faP8ULisHQLcJBTfoVwXT9wkC6Qr7AnSwsQdRJf8GwLIJBvBI9wcYF2kFJ2ZvB
lpc_rms=-30.91
offset=2402
pitch_keycenter=G#5
sample=Soprano_Accent_PP_G#4.opus
tune=+5
</region>
</group>

<group>
group_label=Group_43-86
lpc_hicc1=86
lpc_locc1=43

<region>
hikey=B3
hivel=127
lokey=A#3
loop_end=279800
loop_mode=loop_continuous
loop_start=80554
loop_xfade=24143
lovel=1
lpc=zlutQfxsOsI8wTJCesAdwqvADUJs7ALCwDIFQmHr3MFhAZlB/0E5wadhz0BU22XAf7DcvobS2D7uIABA0t76v/hmGkCb7Ka/QpQcQECXrsBUrgBBgX3awIsn6T+RQ5U9
lpc_rms=-31.67
offset=3974
pitch_keycenter=A#3
sample=Soprano_Accent_MF_A#2.opus
tune=+18
</region>

<region>
hikey=B4
hivel=127
lokey=A#4
loop_end=284051
loop_mode=loop_continuous
loop_start=81778
loop_xfade=24510
lovel=1
lpc=CgSnQdpBVcJ0Um9C9F08wmKIBEInWsnBd0HlQcfGBMLgnOdBIh2dwZkULkFbvZTA4NPeP1misT34rx1AKhOTwKOSB0AhRW2/BHj6Phok+L4/ds4/Y3O8v+lUkL43E4c/
lpc_rms=-31.50
offset=9011
pitch_keycenter=A#4
sample=Soprano_Accent_MF_A#3.opus
tune=-2
</region>

<region>
hikey=B5
hivel=127
lokey=A#5
loop_end=276892
loop_mode=loop_continuous
loop_start=79717
loop_xfade=23892
lovel=1
lpc=4rxPQjJQssL8+sxCP6udwtPucEKfIyPCzmI6QltiMcKCGzBCArfDwYtIWkFQo4NAPWz/v5JPFECg8D9B49pVwRSnnEH2WgnBQQ2hQNAhTkBjaVBBOv++wWJqEkJQlZzB
lpc_rms=-25.13
offset=1089
pitch_keycenter=A#5
sample=Soprano_Accent_MF_A#4.opus
tune=-11
</region>

<region>
hikey=C#4
hivel=127
lokey=C4
loop_end=278464
loop_mode=loop_continuous
loop_start=80170
loop_xfade=24027
lovel=1
lpc=6pFPQmE4BMPJMAZDfKuzws/MckIHzEbC91BBQr8wI8JUV91B3/MhwZm/LEAedmHAysEqwMa+aUAQER1ADxELwQVoWEEkLhHBY5AxQY/wqsHTCbNBZrllwQdIjT/fY0ZA
lpc_rms=-26.28
offset=3816
sample=Soprano_Accent_MF_C3.opus
tune=+5
</region>

<region>
hikey=C#5
hivel=127
lokey=C5
loop_end=275699
loop_mode=loop_continuous
loop_start=79374
loop_xfade=23789
lovel=1
lpc=490cQiJ/wMKvTdhCURa5wqfcgULsNOfBtx89Qe/5IcF9fzdBqGBfwWwDBEHE7ExAH1q7wHj3LUFOrhLBDrz2vwjiSkBWgdW/wDoawJGUEUElnOnAynwPQbqqXcGHRQNB
lpc_rms=-28.37
offset=1323
pitch_keycenter=C5
sample=Soprano_Accent_MF_C4.opus
tune=-8
</region>

<region>
hikey=C#6
hivel=127
lokey=C6
loop_end=268979
loop_mode=loop_continuous
loop_start=77439
loop_xfade=23209
lovel=1
lpc=Jg/CQlEmG8M4Bv5Co6u9wndplEJ0TDbCik0lQn8F38GmD79BjYNkwaf3g0Gm9aDAjEQWQS9TN8DGDUk/49AWQU9zuMA7eJpBYWNhwVARXEF9cJjBOO1FQrdhvcLqc3NC
lpc_rms=-24.88
offset=705
pitch_keycenter=C6
sample=Soprano_Accent_MF_C5.opus
tune=-14
</region>

<region>
hikey=D#4
hivel=127
lokey=D4
loop_end=276936
loop_mode=loop_continuous
loop_start=79730
loop_xfade=23896
lovel=1
lpc=BvUnQmrN2MLatelCoLOowo5OakJ5ZzjCkwc5QmAqSMJDey5C/MXHwYmFa0GIHFvBkQQxQNnD2D+77WtAO1ZxwP8eskAGUOe/Ba3FwL+jkEBAoBlAlEKPwNXXor/42kdA
lpc_rms=-26.25
offset=2155
pitch_keycenter=D4
sample=Soprano_Accent_MF_D3.opus
tune=-2
</region>

<region>
hikey=D#5
hivel=127
lokey=D5
loop_end=273579
loop_mode=loop_continuous
loop_start=78763
loop_xfade=23606
lovel=1
lpc=bGUwQpxI78KNDhlDSnkJw0Ri00KoMZ3CXLmJQpQFh8Kcen1C6ztAwsvtq0GFJi1BK3v5wcSoBUKCHK/B4xc4QEKKKUDIaW9Bt+j8wePZF0JljRDCfDHnQa5NmsGhtAVB
lpc_rms=-30.24
offset=789
pitch_keycenter=D5
sample=Soprano_Accent_MF_D4.opus
tune=+2
</region>

<region>
hikey=D#6
hivel=127
lokey=D6
loop_end=273070
loop_mode=loop_continuous
loop_start=78617
loop_xfade=23562
lovel=1
lpc=uv5dQvKKtcKGFpRCFGhFwhE/9kGoHLbBSmXBQZ8duMFmP7NBhxZbwaIROUEB1/vAWXP+QP6AKsC2UhxAhtMrQMfTpb9GOSZAqBdHwLOpxUA5GxvC3K47Qr90tMHRSjVB
lpc_rms=-30.37
offset=966
pitch_keycenter=D6
sample=Soprano_Accent_MF_D5.opus
tune=-21
</region>

<region>
hikey=F4
hivel=127
lokey=E4
loop_end=276689
loop_mode=loop_continuous
loop_start=79659
loop_xfade=23874
lovel=1
lpc=zuqwQv51ZcP6elpDBlHowh55l0Ika37CMk91Qs/HicLEM1NCpmaewcAm4MBvv4ZBC1w7wb/k6z9Il6NAvB3yv37wzz7ClGbA8hMhQVM+y8H2gPVBGm2ZwUFsR0CZgklA
lpc_rms=-24.10
offset=1734
pitch_keycenter=E4
sample=Soprano_Accent_MF_E3.opus
tune=-3
</region>

<region>
hikey=F5
hivel=127
lokey=E5
loop_end=274452
loop_mode=loop_continuous
loop_start=79015
loop_xfade=23681
lovel=1
lpc=BFLBQmdvcsPeu4RDmO4wwzBq1EK1ObHC6rPZQkPX68L0UbxC/MsvwmPg5D4ybJlBfM5owaXtF0H8fgDBUITlQJco0D+a/L3A2vUBQWNnx8DTqhFBGEbjwAOPyMCiTEpB
lpc_rms=-25.02
offset=691
pitch_keycenter=E5
sample=Soprano_Accent_MF_E4.opus
tune=-4
</region>

<region>
hikey=F6
hivel=127
lokey=E6
loop_end=239481
loop_mode=loop_continuous
loop_start=68946
loop_xfade=20664
lovel=1
lpc=IFTUQr+tRcP1GCZD7xLdwvzSh0Ij9jrCn/lPQrwpK8Jq+KpBHO5oQAInCMH0HzJBvxuNwDWUzL380PVA6OyeP0IwLcFGOU9BTE2mwha1BkPD9b3C8I6HQlnvEMJHThZB
lpc_rms=-22.33
offset=162
pitch_keycenter=E6
sample=Soprano_Accent_MF_E5.opus
tune=-12
</region>

<region>
hikey=G4
hivel=127
lokey=F#4
loop_end=274250
loop_mode=loop_continuous
loop_start=78957
loop_xfade=23664
lovel=1
lpc=lLyBQiJMEMMuFwxDLBunwh9Tx0FY88zAyNGoQfsi88GBKKtBOme9wJw8rECvL6XA1JXKwIEr1UBqKydBqFxSwcc82T/nn9lAjhQMwU0fdb9Yd0ZA2UTkPrdD58A0mh5B
lpc_rms=-26.06
offset=955
pitch_keycenter=F#4
sample=Soprano_Accent_MF_F#3.opus
tune=-5
</region>

<region>
hikey=G5
hivel=127
lokey=F#5
loop_end=278762
loop_mode=loop_continuous
loop_start=80256
loop_xfade=24053
lovel=1
lpc=5Hk8QrRlwcIDncRCiYuPwo+gSkJKn+DBgmrPQbuG1sEsJphBwjP2wOJMr0AiM0dAEIqVwOAMh0Bz36M/8cB3v8CWP8AqLCxBlk4DwZJWEkFoNQnBz4FzQfJdpMGU+4NB
lpc_rms=-30.07
offset=6004
pitch_keycenter=F#5
sample=Soprano_Accent_MF_F#4.opus
tune=+1
</region>

<region>
hikey=A3
hivel=127
lokey=G#3
loop_end=277554
loop_mode=loop_continuous
loop_start=79908
loop_xfade=23949
lovel=1
lpc=cAyzQkE+NcNRjdRC2y4XwtaK1UGwYoZB0tIuwteB9kExoM7AoIiyP69Oz0DLNJnBgEGaQcbEvj5X+c3BPL2yQcNnjcG1IMBBzdmwvWtLCMDmvOfBGuL/Qc6D1MF4Ol9B
lpc_rms=-23.49
offset=6963
pitch_keycenter=G#3
sample=Soprano_Accent_MF_G#2.opus
tune=+1
</region>

<region>
hikey=A4
hivel=127
lokey=G#4
loop_end=275479
loop_mode=loop_continuous
loop_start=79310
loop_xfade=23770
lovel=1
lpc=1+MuQmfm2ML1belCkCSowsLcO0JE6uPBPpT0QQh848GTM5lBF3TAwHxLLMAo1bRA1cIOwUaknkAMjK9Aidr/wMdvkz4Z+TNB2lchwV8ffMCadfVAbrkSwG3DzL+WJhtA
lpc_rms=-29.02
offset=830
pitch_keycenter=G#4
sample=Soprano_Accent_MF_G#3.opus
tune=-8
</region>

<region>
hikey=A5
hivel=127
lokey=G#5
loop_end=283342
loop_mode=loop_continuous
loop_start=81574
loop_xfade=24448
lovel=1
lpc=cFBZQqjO3cKSt/tC51ipwnCDWUIUCjfCi3x9Qo1BacJ5jSpCG2ZcwfLAMz9/xFxBzN1GwSjsPUFjJCpAco6Dvn9cusAbkL9BMI61wZ8ri0FtMlLA1KoaQeOHLcEqFl9B
lpc_rms=-26.94
offset=9712
pitch_keycenter=G#5
sample=Soprano_Accent_MF_G#4.opus
tune=-3
</region>
</group>

<group>
group_label=Group_87-127
lpc_hicc1=127
lpc_locc1=87

<region>
hikey=B3
hivel=127
lokey=A#3
loop_end=277356
loop_mode=loop_continuous
loop_start=79851
loop_xfade=23932
lovel=1
lpc=N+a3QVPCZMKismNCzNgkwuGEEkI4UPnBYhbwQdtp/cE/CsdBqpCRwZp3c0HOWxTBa7mSQCDM1b6V8zPALAR6PtTrR0CMiirA3/EyQHKo4MDGpidB5SINwWGvl0DQTo+/
lpc_rms=-22.08
offset=5747
pitch_keycenter=A#3
sample=Soprano_Accent_FF_A#2.opus
tune=-11
</region>

<region>
hikey=B4
hivel=127
lokey=A#4
loop_end=274782
loop_mode=loop_continuous
loop_start=79110
loop_xfade=23710
lovel=1
lpc=FeblQCyIg8EesZNB1vp0wRybMEGdlhzBJWs4QbpnN8E2lQdBkXmVwKWcvD9+lJ8+E4HNPT2jJr+eXmI/bMGsv7d+1j+iMwPAagsRQFaMM8ANUV5AkPBAwOpEBkAdvBa/
lpc_rms=-28.02
offset=151
pitch_keycenter=A#4
sample=Soprano_Accent_FF_A#3.opus
tune=-5
</region>

<region>
hikey=B5
hivel=127
lokey=A#5
loop_end=271244
loop_mode=loop_continuous
loop_start=78091
loop_xfade=23404
lovel=1
lpc=IevAQV7I4sE3SvVBbzujwSsYqEE/VsrAnGEDQW70YsCeLCBBWfWfwLwLOEFwJUDAXn+3QP5aUT88uoJAb0+bQHuUUr7hOYpAFIVpQKVxA8BsjkxB2MecwF/Z0UD/LKo/
lpc_rms=-21.48
offset=113
pitch_keycenter=A#5
sample=Soprano_Accent_FF_A#4.opus
tune=-6
</region>

<region>
hikey=C#4
hivel=127
lokey=C4
loop_end=281716
loop_mode=loop_continuous
loop_start=81106
loop_xfade=24308
lovel=1
lpc=a2f6QTM5ocKbj6JCi/BgwvodPEJcPhrCN1AGQrafB8KYp+NBktKiweSmM0H8e1k/xKMOwSbcJUF0g9zAmo4UP9jE6z/YZ48/BYvMP4pXMMHTS4hBOdGcwYxEb0HijpDA
lpc_rms=-24.16
offset=9344
sample=Soprano_Accent_FF_C3.opus
</region>

<region>
hikey=C#5
hivel=127
lokey=C5
loop_end=274516
loop_mode=loop_continuous
loop_start=79033
loop_xfade=23687
lovel=1
lpc=lmuHQdI0KsKWqz1CyqUTwpapxEHL0nXBXR9pQc5AecHTEjhB0RmowAiYj7tRtadAWdjKwKSFk0DNhuy/TAPuv/HeGUAtwZy/+VrPP5vGEMDsNBFAsltjvwhNdb9hspU/
lpc_rms=-25.81
offset=292
pitch_keycenter=C5
sample=Soprano_Accent_FF_C4.opus
tune=-5
</region>

<region>
hikey=C#6
hivel=127
lokey=C6
loop_end=272083
loop_mode=loop_continuous
loop_start=78333
loop_xfade=23477
lovel=1
lpc=rEopQum3LMJ19RFC7Vu0wTUymUGN6CDBnnkzQafEgsBnHcZAErQHv+mPf0ANORJAgwBRP0vqU0CcPL0+b2iEQK9qW78F2vBAm8+cwI/1OkGED1rBC7bbQUqYHcKp2jFB
lpc_rms=-20.77
offset=282
pitch_keycenter=C6
sample=Soprano_Accent_FF_C5.opus
tune=-10
</region>

<region>
hikey=D#4
hivel=127
lokey=D4
loop_end=279123
loop_mode=loop_continuous
loop_start=80360
loop_xfade=24084
lovel=1
lpc=mgEbQlKf2cJ0QAZDyq7lwgebrEIspX7CAwpZQiR1SMItXjhComQNwoEzpEHOZhLBJqtvv5PCoUCtNpnAr2RuQEVzkT8JHQy/S0dFwH19ckAEP2/AXStUQHbCt8DTEoJA
lpc_rms=-24.14
offset=3661
pitch_keycenter=D4
sample=Soprano_Accent_FF_D3.opus
tune=+15
</region>

<region>
hikey=D#5
hivel=127
lokey=D5
loop_end=274291
loop_mode=loop_continuous
loop_start=78968
loop_xfade=23667
lovel=1
lpc=mn/EQeTYg8KPvK1CkU+mwrkBhUJZxkrCLqkqQiBQ7sEBx39BoIv2wG/NN0AfdjBAxtI2wbxCe0HVZRbB5X9Fv2XkmkCVxqA+5d2uwPLwDEFcQADBj0bvQA3XGsHbTsBA
lpc_rms=-21.86
offset=229
pitch_keycenter=D5
sample=Soprano_Accent_FF_D4.opus
tune=-7
</region>

<region>
hikey=D#6
hivel=127
lokey=D6
loop_end=273172
loop_mode=loop_continuous
loop_start=78646
loop_xfade=23571
lovel=1
lpc=HbmyQtrkDMP0C8dCr2Y/wmWACkILe/PBom8/QjdkNMJIITBCfELYwUAk3EG9xpvBhk/NQR0DlsEU/uhBM/vXwYOcCEL9vrXBDiHUQf/S98EyAMrBa6iIQhzzBsIgxxpB
lpc_rms=-22.93
offset=558
pitch_keycenter=D6
sample=Soprano_Accent_FF_D5.opus
tune=-27
</region>

<region>
hikey=F4
hivel=127
lokey=E4
loop_end=274269
loop_mode=loop_continuous
loop_start=78962
loop_xfade=23665
lovel=1
lpc=jYc6Qhe3AsPL7yZD7wwTw78l00JHmJrCfrqRQurdicIbn2VCqRISwknCbEFRdYU+5DY1wc36Y0G0plTBCIxoQTC/LMG8JwBBbjLFwPj/kb8gzplA9paPwKF5Tb6pyDVA
lpc_rms=-21.28
offset=711
pitch_keycenter=E4
sample=Soprano_Accent_FF_E3.opus
tune=+6
</region>

<region>
hikey=F5
hivel=127
lokey=E5
loop_end=274759
loop_mode=loop_continuous
loop_start=79103
loop_xfade=23708
lovel=1
lpc=5o2iQfcYSsIzYnhCM9tRwu+TF0KAawDCRMQQQsbxD8KR/tNB+OtUwSbst0D5Js6/UfUxwA7BIkElvVPB9+gtQU6SyMDl5RpAciPUPuGA6b+3Md8/o56hP01tQsBh9TRA
lpc_rms=-19.89
offset=311
pitch_keycenter=E5
sample=Soprano_Accent_FF_E4.opus
tune=+4
</region>

<region>
hikey=F6
hivel=127
lokey=E6
loop_end=243720
loop_mode=loop_continuous
loop_start=70167
loop_xfade=21029
lovel=1
lpc=XaJyQjMR6cKHGtxCfHOiws2bYkKj9xbCqNveQeg3sMG+b5FBoUctwa7FJUERS8fA9SH4QFlXycC8zQpBrdNMwLdZOT7LcLxAAv1hwt9Vv0K+2pbCSpFLQqRU4sFZI0RB
lpc_rms=-22.59
offset=102
pitch_keycenter=E6
sample=Soprano_Accent_FF_E5.opus
tune=-10
</region>

<region>
hikey=G4
hivel=127
lokey=F#4
loop_end=274926
loop_mode=loop_continuous
loop_start=79151
loop_xfade=23722
lovel=1
lpc=T/fuQdRVi8IitKZCVXiZwl6AYEKw2TLC+iI2QgbNK8Kc0/1BQZ5cwaRHR0CciO8+/3iZwD7VFEHPNEzBHId/QZyWacFnpB1BaDnXwPzCn0AQJu7AFnkOQfnhHcH5kuVA
lpc_rms=-24.84
offset=919
pitch_keycenter=F#4
sample=Soprano_Accent_FF_F#3.opus
tune=-4
</region>

<region>
hikey=G5
hivel=127
lokey=F#5
loop_end=275297
loop_mode=loop_continuous
loop_start=79258
loop_xfade=23754
lovel=1
lpc=DWldQY5558E1tPhBKRjEwXGKnEGWrFrBl1gLQRhERsCkSYM/3Za4v7SbVkAiDGy/vz7+v2GPSUAKLqG/K54cP5l0xT84uK6/GhtcPnoJGEBUQozAnJoFQR4hFMFja7tA
lpc_rms=-25.19
offset=401
pitch_keycenter=F#5
sample=Soprano_Accent_FF_F#4.opus
tune=+6
</region>

<region>
hikey=A3
hivel=127
lokey=G#3
loop_end=273612
loop_mode=loop_continuous
loop_start=78773
loop_xfade=23609
lovel=1
lpc=vR/+QY2vp8LGqqJCFOo3wqQoH0JKmCXCEVwEQrpM4sH9uLBBnkokwcYRhz9+gW5AzXr9wKRNT0FllmrBHRE9QawVKMH+nEJBuFtCwdLkB0E6D57ARJ2iQKhVrsAl6R1A
lpc_rms=-17.98
offset=481
pitch_keycenter=G#3
sample=Soprano_Accent_FF_G#2.opus
tune=-9
</region>

<region>
hikey=A4
hivel=127
lokey=G#4
loop_end=274069
loop_mode=loop_continuous
loop_start=78904
loop_xfade=23648
lovel=1
lpc=qpuYQXnPPMJYM2ZCyrJXwsbTKUJhDwTCCtT4QT4m+cGLWOlBJIWewfFiLUEakeDAW07UP3V5lT/CZQQ/brxzvyS3RL5ndCxA8fYkwDs3fL/CaRdAJk9KwHQ/L0CPnOS8
lpc_rms=-25.72
offset=517
pitch_keycenter=G#4
sample=Soprano_Accent_FF_G#3.opus
tune=-3
</region>

<region>
hikey=A5
hivel=127
lokey=G#5
loop_end=276754
loop_mode=loop_continuous
loop_start=79678
loop_xfade=23880
lovel=1
lpc=CmSNQXXKvsFn+r9B84+7wXFd5kGQc7HB/RiqQZApmcEYTo9BkqQWwcYyEkEQ0hDAGsg9wAfm+EC8WIbAoNImQQkbPsHDuzVBixq5wEigHEEgJtnAWgPJQGCAo8AvgwNB
lpc_rms=-21.52
offset=81
pitch_keycenter=G#5
sample=Soprano_Accent_FF_G#4.opus
tune=+8
</region>
</group>